{"title":"Krrish 3 2013 Hindi Movies HDDVDRip x264 ESubs 5.1 New Source +S","uid":9366624,"size":741224778,"categoryP":"video","categoryS":"movies","magnet":"?xt=urn:btih:404735a09320d0924c2b84b92b16a0ed2cedaefe&amp;dn=Krrish+3+2013+Hindi+Movies+HDDVDRip+x264+ESubs+5.1+New+Source+%2BS&amp;tr=udp%3A%2F%2Ftracker.openbittorrent.com%3A80&amp;tr=udp%3A%2F%2Fopen.demonii.com%3A1337&amp;tr=udp%3A%2F%2Ftracker.coppersurfer.tk%3A6969&amp;tr=udp%3A%2F%2Fexodus.desync.com%3A6969","seeders":1,"leechers":0,"uploader":"basicssom","files":4,"time":1387433795,"description":" &lt;a href=&quot;http://s5.postimg.org/hgeuxszk7/logo.png&quot; rel=&quot;nofollow&quot; target=&quot;_NEW&quot;&gt;http://s5.postimg.org/hgeuxszk7/logo.png&lt;/a&gt;\n\nKrrish 3 2013 Hindi Movies HDDVDRip x264 ESubs 5.1 New Source +Sample ~ â˜»rDXâ˜»\n\nPlease check SCREEN SHOTS first :\n &lt;a href=&quot;\nhttp://moviesreview.co.nr/2013/12/DVDKrrish3/1.html&quot; rel=&quot;nofollow&quot; target=&quot;_NEW&quot;&gt;\nhttp://moviesreview.co.nr/2013/12/DVDKrrish3/1.html&lt;/a&gt;\n &lt;a href=&quot;\nhttp://moviesreview.co.nr/2013/12/DVDKrrish3/2.html&quot; rel=&quot;nofollow&quot; target=&quot;_NEW&quot;&gt;\nhttp://moviesreview.co.nr/2013/12/DVDKrrish3/2.html&lt;/a&gt;\n &lt;a href=&quot;\nhttp://moviesreview.co.nr/2013/12/DVDKrrish3/3.html&quot; rel=&quot;nofollow&quot; target=&quot;_NEW&quot;&gt;\nhttp://moviesreview.co.nr/2013/12/DVDKrrish3/3.html&lt;/a&gt;\n &lt;a href=&quot;\nhttp://moviesreview.co.nr/2013/12/DVDKrrish3/4.html&quot; rel=&quot;nofollow&quot; target=&quot;_NEW&quot;&gt;\nhttp://moviesreview.co.nr/2013/12/DVDKrrish3/4.html&lt;/a&gt;\n &lt;a href=&quot;\nhttp://moviesreview.co.nr/2013/12/DVDKrrish3/5.html&quot; rel=&quot;nofollow&quot; target=&quot;_NEW&quot;&gt;\nhttp://moviesreview.co.nr/2013/12/DVDKrrish3/5.html&lt;/a&gt;\n &lt;a href=&quot;\nhttp://moviesreview.co.nr/2013/12/DVDKrrish3/6.html&quot; rel=&quot;nofollow&quot; target=&quot;_NEW&quot;&gt;\nhttp://moviesreview.co.nr/2013/12/DVDKrrish3/6.html&lt;/a&gt;\n\nAll rDX torrents are Seeding From the 1Gbps Seedbox 24X7\n &lt;a href=&quot;\nhttp://s5.postimg.org/8g2l6v4zr/image.jpg&quot; rel=&quot;nofollow&quot; target=&quot;_NEW&quot;&gt;\nhttp://s5.postimg.org/8g2l6v4zr/image.jpg&lt;/a&gt;\n &lt;a href=&quot;\nhttp://s5.postimg.org/bo72jwr9j/image.jpg&quot; rel=&quot;nofollow&quot; target=&quot;_NEW&quot;&gt;\nhttp://s5.postimg.org/bo72jwr9j/image.jpg&lt;/a&gt;\n &lt;a href=&quot;\nhttp://s5.postimg.org/hzca0bshz/image.jpg&quot; rel=&quot;nofollow&quot; target=&quot;_NEW&quot;&gt;\nhttp://s5.postimg.org/hzca0bshz/image.jpg&lt;/a&gt;\n\nFormat                                   : Matroska\nFormat version                           : Version 4 / Version 2\nFile size                                : 682 MiB\nDuration                                 : 2h 32mn\nOverall bit rate mode                    : Variable\nOverall bit rate                         : 633 Kbps\n\nVideo\nID                                       : 1\nFormat                                   : AVC\nFormat/Info                              : Advanced Video Codec\nFormat profile                           : &lt;a class=&quot;__cf_email__&quot; href=&quot;/cdn-cgi/l/email-protection&quot; data-cfemail=&quot;e6ae8f818ea6aad4c8d7&quot;&gt;[email&amp;#160;protected]&lt;/a&gt;&lt;script data-cfhash='f9e31' type=&quot;text/javascript&quot;&gt;\n/* &lt;![CDATA[ */!function(){try{var t=&quot;currentScript&quot;in document?document.currentScript:function(){for(var t=document.getElementsByTagName(&quot;script&quot;),e=t.length;e--;)if(t[e].getAttribute(&quot;data-cfhash&quot;))return t[e]}();if(t&amp;&amp;t.previousSibling){var e,r,n,i,c=t.previousSibling,a=c.getAttribute(&quot;data-cfemail&quot;);if(a){for(e=&quot;&quot;,r=parseInt(a.substr(0,2),16),n=2;a.length-n;n+=2)i=parseInt(a.substr(n,2),16)^r,e+=String.fromCharCode(i);e=document.createTextNode(e),c.parentNode.replaceChild(e,c)}t.parentNode.removeChild(t);}}catch(u){}}()/* ]]&gt; */&lt;/script&gt;\nFormat settings, CABAC                   : Yes\nFormat settings, ReFrames                : 5 frames\nCodec ID                                 : V_MPEG4/ISO/AVC\nDuration                                 : 2h 32mn\nBit rate                                 : 550 Kbps\nWidth                                    : 608 pixels\nHeight                                   : 256 pixels\nDisplay aspect ratio                     : 2.40:1\nFrame rate mode                          : Constant\nFrame rate                               : 23.976 fps\nColor space                              : YUV\nChroma subsampling                       : 4:2:0\nBit depth                                : 8 bits\nScan type                                : Progressive\nBits/(Pixel*Frame)                       : 0.147\nStream size                              : 582 MiB (85%)\nTitle                                    : rDX\nWriting library                          : x264\nLanguage                                 : Hindi\nDefault                                  : Yes\nForced                                   : No\n\nAudio\nID                                       : 2\nFormat                                   : MPEG Audio\nFormat version                           : Version 1\nFormat profile                           : Layer 3\nMode                                     : Joint stereo\nMode extension                           : MS Stereo\nCodec ID                                 : A_MPEG/L3\nCodec ID/Hint                            : MP3\nDuration                                 : 2h 32mn\nBit rate mode                            : Variable\nBit rate                                 : 80.0 Kbps\nChannel(s)                               : 6 channels\nSampling rate                            : 32.0 KHz\nCompression mode                         : Lossy\nDelay relative to video                  : 432ms\nStream size                              : 84.4 MiB (12%)\nTitle                                    : rDX\nWriting library                          : LAME3.99r\nEncoding settings                        : -m j -V 4 -q 2 -lowpass 13.5 --abr 80\nLanguage                                 : Hindi\nDefault                                  : Yes\nForced                                   : No","torrent":{"xt":"urn:btih:404735a09320d0924c2b84b92b16a0ed2cedaefe","amp;dn":"Krrish+3+2013+Hindi+Movies+HDDVDRip+x264+ESubs+5.1+New+Source+%2BS","amp;tr":["udp%3A%2F%2Ftracker.openbittorrent.com%3A80","udp%3A%2F%2Fopen.demonii.com%3A1337","udp%3A%2F%2Ftracker.coppersurfer.tk%3A6969","udp%3A%2F%2Fexodus.desync.com%3A6969"],"infoHash":"404735a09320d0924c2b84b92b16a0ed2cedaefe","infoHashBuffer":{"type":"Buffer","data":[64,71,53,160,147,32,208,146,76,43,132,185,43,22,160,237,44,237,174,254]},"announce":[],"urlList":[]}}